<?xml version="1.0" encoding="UTF-8" standalone="no"?>
<svg
   xmlns:dc="http://purl.org/dc/elements/1.1/"
   xmlns:cc="http://creativecommons.org/ns#"
   xmlns:rdf="http://www.w3.org/1999/02/22-rdf-syntax-ns#"
   xmlns:svg="http://www.w3.org/2000/svg"
   xmlns="http://www.w3.org/2000/svg"
   id="svg8"
   version="1.1"
   viewBox="0 0 210 297"
   height="297mm"
   width="210mm">
  <defs
     id="defs2" />
  <metadata
     id="metadata5">
    <rdf:RDF>
      <cc:Work
         rdf:about="">
        <dc:format>image/svg+xml</dc:format>
        <dc:type
           rdf:resource="http://purl.org/dc/dcmitype/StillImage" />
        <dc:title></dc:title>
      </cc:Work>
    </rdf:RDF>
  </metadata>
  <g
     id="layer1">
    <path
       id="path832"
       d="m 27.854233,223.32152 c -5.883202,-6.26321 -5.275239,-7.12501 29.66983,-42.05665 17.74761,-17.74081 32.2684,-32.80134 32.2684,-33.4679 0,-0.66653 -14.52079,-15.72707 -32.2684,-33.46788 C 29.249776,86.065646 25.255669,81.617004 25.255669,78.388467 c 0,-4.920247 4.276916,-8.882457 9.587959,-8.882457 3.713063,0 6.813285,2.751136 36.683505,32.55286 l 32.627687,32.55285 32.56476,-32.55285 c 29.23171,-29.221038 32.96149,-32.55286 36.44091,-32.55286 5.28047,0 8.65664,3.595229 8.65664,9.218288 0,4.211257 -1.64139,6.081976 -32.24511,36.749912 l -32.24515,32.31277 32.24515,32.32769 c 30.01558,30.09242 32.24511,32.61973 32.24511,36.55155 0,5.21525 -4.03264,9.42173 -9.03245,9.42173 -2.98751,0 -8.26987,-4.76779 -36.05527,-32.54304 l -32.55492,-32.54302 -32.678497,32.54302 c -30.293713,30.16814 -32.983692,32.54304 -36.860829,32.54304 -2.826495,0 -5.024765,-0.89685 -6.780931,-2.76643 z"
       style="fill:none;stroke:#ec2900;stroke-width:45.17306137;stroke-linecap:round;stroke-linejoin:round;stroke-miterlimit:4;stroke-dasharray:none;stroke-opacity:1;paint-order:stroke fill markers" />
  </g>
</svg>
